<svg width="648" height="16" viewBox="0 0 648 16" fill="none" xmlns="http://www.w3.org/2000/svg">
<g clip-path="url(#clip0_2313_10584)">
<rect x="0.5" y="7.84961" width="1.29412" height="0.300774" fill="white"/>
<rect x="2.38281" y="7.84961" width="1.29412" height="0.300774" fill="white"/>
<rect x="4.26562" y="7.84961" width="1.29412" height="0.300774" fill="white"/>
<rect x="6.14844" y="6.4375" width="1.29412" height="3.12454" fill="white"/>
<rect x="8.03125" y="5.02734" width="1.29412" height="5.94566" fill="white"/>
<rect x="9.91016" width="1.29412" height="16" fill="white"/>
<rect x="11.793" y="3.31494" width="1.29412" height="9.36985" fill="white"/>
<rect x="13.6758" y="4.70215" width="1.29412" height="6.59585" fill="white"/>
<rect x="15.5586" y="6.36328" width="1.29412" height="3.27364" fill="white"/>
<rect x="17.4414" y="7.50439" width="1.29412" height="0.991216" fill="white"/>
<rect x="19.3242" y="3.22363" width="1.29412" height="9.55279" fill="white"/>
<rect x="21.207" y="4.64795" width="1.29412" height="6.70432" fill="white"/>
<rect x="23.0898" y="6.32617" width="1.29412" height="3.34814" fill="white"/>
<rect x="24.9688" y="7.58496" width="1.29412" height="0.830264" fill="white"/>
<rect x="26.8516" y="4.87939" width="1.29412" height="6.24113" fill="white"/>
<rect x="28.7344" y="6.146" width="1.29412" height="3.70779" fill="white"/>
<rect x="30.6172" y="7.60107" width="1.29412" height="0.797924" fill="white"/>
<rect x="32.5" y="7.60107" width="1.29412" height="0.797924" fill="white"/>
<rect x="34.3828" y="7.60107" width="1.29412" height="0.797924" fill="white"/>
<rect x="36.2656" y="7.60107" width="1.29412" height="0.797924" fill="white"/>
<rect x="38.1484" y="6.38818" width="1.29412" height="3.22344" fill="white"/>
<rect x="40.0312" y="4.87939" width="1.29412" height="6.24098" fill="white"/>
<rect x="41.9102" width="1.29412" height="16" fill="white"/>
<rect x="43.793" y="3.0708" width="1.29412" height="9.85846" fill="white"/>
<rect x="45.6758" y="4.67334" width="1.29412" height="6.65349" fill="white"/>
<rect x="47.5586" y="6.41602" width="1.29412" height="3.16816" fill="white"/>
<rect x="49.4414" y="7.5459" width="1.29412" height="0.908501" fill="white"/>
<rect x="51.3242" y="3.24463" width="1.29412" height="9.5105" fill="white"/>
<rect x="53.207" y="4.67969" width="1.29412" height="6.64072" fill="white"/>
<rect x="55.0898" y="6.30078" width="1.29412" height="3.39874" fill="white"/>
<rect x="56.9688" y="7.58594" width="1.29412" height="0.828411" fill="white"/>
<rect x="58.8516" y="4.81201" width="1.29412" height="6.37621" fill="white"/>
<rect x="60.7344" y="6.17871" width="1.29412" height="3.64258" fill="white"/>
<rect x="62.6172" y="7.4917" width="1.29412" height="1.01618" fill="white"/>
<rect x="64.5" y="7.4917" width="1.29412" height="1.01618" fill="white"/>
<rect x="66.3828" y="7.4917" width="1.29412" height="1.01618" fill="white"/>
<rect x="67.6758" y="7.84961" width="1.29412" height="0.300774" fill="white"/>
<rect x="69.5586" y="7.84961" width="1.29412" height="0.300774" fill="white"/>
<rect x="71.4414" y="7.84961" width="1.29412" height="0.300774" fill="white"/>
<rect x="73.3242" y="6.4375" width="1.29412" height="3.12454" fill="white"/>
<rect x="75.207" y="5.02734" width="1.29412" height="5.94566" fill="white"/>
<rect x="77.0859" width="1.29412" height="16" fill="white"/>
<rect x="78.9688" y="3.31494" width="1.29412" height="9.36985" fill="white"/>
<rect x="80.8516" y="4.70215" width="1.29412" height="6.59585" fill="white"/>
<rect x="82.7344" y="6.36328" width="1.29412" height="3.27364" fill="white"/>
<rect x="84.6172" y="7.50439" width="1.29412" height="0.991216" fill="white"/>
<rect x="86.5" y="3.22363" width="1.29412" height="9.55279" fill="white"/>
<rect x="88.3828" y="4.64795" width="1.29412" height="6.70432" fill="white"/>
<rect x="90.2656" y="6.32617" width="1.29412" height="3.34814" fill="white"/>
<rect x="92.1445" y="7.58496" width="1.29412" height="0.830264" fill="white"/>
<rect x="94.0273" y="4.87939" width="1.29412" height="6.24113" fill="white"/>
<rect x="95.9102" y="6.146" width="1.29412" height="3.70779" fill="white"/>
<rect x="97.793" y="7.60107" width="1.29412" height="0.797924" fill="white"/>
<rect x="99.6758" y="7.60107" width="1.29412" height="0.797924" fill="white"/>
<rect x="101.559" y="7.60107" width="1.29412" height="0.797924" fill="white"/>
<rect x="103.441" y="7.60107" width="1.29412" height="0.797924" fill="white"/>
<rect x="105.324" y="6.38818" width="1.29412" height="3.22344" fill="white"/>
<rect x="107.207" y="4.87939" width="1.29412" height="6.24098" fill="white"/>
<rect x="109.086" width="1.29412" height="16" fill="white"/>
<rect x="110.969" y="3.0708" width="1.29412" height="9.85846" fill="white"/>
<rect x="112.852" y="4.67334" width="1.29412" height="6.65349" fill="white"/>
<rect x="114.734" y="6.41602" width="1.29412" height="3.16816" fill="white"/>
<rect x="116.617" y="7.5459" width="1.29412" height="0.908501" fill="white"/>
<rect x="118.5" y="3.24463" width="1.29412" height="9.5105" fill="white"/>
<rect x="120.383" y="4.67969" width="1.29412" height="6.64072" fill="white"/>
<rect x="122.266" y="6.30078" width="1.29412" height="3.39874" fill="white"/>
<rect x="124.145" y="7.58594" width="1.29412" height="0.828411" fill="white"/>
<rect x="126.027" y="4.81201" width="1.29412" height="6.37621" fill="white"/>
<rect x="127.91" y="6.17871" width="1.29412" height="3.64258" fill="white"/>
<rect x="129.793" y="7.4917" width="1.29412" height="1.01618" fill="white"/>
<rect x="131.676" y="7.4917" width="1.29412" height="1.01618" fill="white"/>
<rect x="133.559" y="7.4917" width="1.29412" height="1.01618" fill="white"/>
<rect x="134.852" y="7.84961" width="1.29412" height="0.300774" fill="white"/>
<rect x="136.734" y="7.84961" width="1.29412" height="0.300774" fill="white"/>
<rect x="138.617" y="7.84961" width="1.29412" height="0.300774" fill="white"/>
<rect x="140.5" y="6.4375" width="1.29412" height="3.12454" fill="white"/>
<rect x="142.383" y="5.02734" width="1.29412" height="5.94566" fill="white"/>
<rect x="144.262" width="1.29412" height="16" fill="white"/>
<rect x="146.145" y="3.31494" width="1.29412" height="9.36985" fill="white"/>
<rect x="148.027" y="4.70215" width="1.29412" height="6.59585" fill="white"/>
<rect x="149.91" y="6.36328" width="1.29412" height="3.27364" fill="white"/>
<rect x="151.793" y="7.50439" width="1.29412" height="0.991216" fill="white"/>
<rect x="153.676" y="3.22363" width="1.29412" height="9.55279" fill="white"/>
<rect x="155.559" y="4.64795" width="1.29412" height="6.70432" fill="white"/>
<rect x="157.441" y="6.32617" width="1.29412" height="3.34814" fill="white"/>
<rect x="159.32" y="7.58496" width="1.29412" height="0.830264" fill="white"/>
<rect x="161.203" y="4.87939" width="1.29412" height="6.24113" fill="white"/>
<rect x="163.086" y="6.146" width="1.29412" height="3.70779" fill="white"/>
<rect x="164.969" y="7.60107" width="1.29412" height="0.797924" fill="white"/>
<rect x="166.852" y="7.60107" width="1.29412" height="0.797924" fill="white"/>
<rect x="168.734" y="7.60107" width="1.29412" height="0.797924" fill="white"/>
<rect x="170.617" y="7.60107" width="1.29412" height="0.797924" fill="white"/>
<rect x="172.5" y="6.38818" width="1.29412" height="3.22344" fill="white"/>
<rect x="174.383" y="4.87939" width="1.29412" height="6.24098" fill="white"/>
<rect x="176.262" width="1.29412" height="16" fill="white"/>
<rect x="178.145" y="3.0708" width="1.29412" height="9.85846" fill="white"/>
<rect x="180.027" y="4.67334" width="1.29412" height="6.65349" fill="white"/>
<rect x="181.91" y="6.41602" width="1.29412" height="3.16816" fill="white"/>
<rect x="183.793" y="7.5459" width="1.29412" height="0.908501" fill="white"/>
<rect x="185.676" y="3.24463" width="1.29412" height="9.5105" fill="white"/>
<rect x="187.559" y="4.67969" width="1.29412" height="6.64072" fill="white"/>
<rect x="189.441" y="6.30078" width="1.29412" height="3.39874" fill="white"/>
<rect x="191.32" y="7.58594" width="1.29412" height="0.828411" fill="white"/>
<rect x="193.203" y="4.81201" width="1.29412" height="6.37621" fill="white"/>
<rect x="195.086" y="6.17871" width="1.29412" height="3.64258" fill="white"/>
<rect x="196.969" y="7.4917" width="1.29412" height="1.01618" fill="white"/>
<rect x="198.852" y="7.4917" width="1.29412" height="1.01618" fill="white"/>
<rect x="200.734" y="7.4917" width="1.29412" height="1.01618" fill="white"/>
<rect x="202.031" y="7.84961" width="1.29412" height="0.300774" fill="white"/>
<rect x="203.914" y="7.84961" width="1.29412" height="0.300774" fill="white"/>
<rect x="205.797" y="7.84961" width="1.29412" height="0.300774" fill="white"/>
<rect x="207.68" y="6.4375" width="1.29412" height="3.12454" fill="white"/>
<rect x="209.562" y="5.02734" width="1.29412" height="5.94566" fill="white"/>
<rect x="211.441" width="1.29412" height="16" fill="white"/>
<rect x="213.324" y="3.31494" width="1.29412" height="9.36985" fill="white"/>
<rect x="215.207" y="4.70215" width="1.29412" height="6.59585" fill="white"/>
<rect x="217.09" y="6.36328" width="1.29412" height="3.27364" fill="white"/>
<rect x="218.973" y="7.50439" width="1.29412" height="0.991216" fill="white"/>
<rect x="220.855" y="3.22363" width="1.29412" height="9.55279" fill="white"/>
<rect x="222.738" y="4.64795" width="1.29412" height="6.70432" fill="white"/>
<rect x="224.621" y="6.32617" width="1.29412" height="3.34814" fill="white"/>
<rect x="226.5" y="7.58496" width="1.29412" height="0.830264" fill="white"/>
<rect x="228.383" y="4.87939" width="1.29412" height="6.24113" fill="white"/>
<rect x="230.266" y="6.146" width="1.29412" height="3.70779" fill="white"/>
<rect x="232.148" y="7.60107" width="1.29412" height="0.797924" fill="white"/>
<rect x="234.031" y="7.60107" width="1.29412" height="0.797924" fill="white"/>
<rect x="235.914" y="7.60107" width="1.29412" height="0.797924" fill="white"/>
<rect x="237.797" y="7.60107" width="1.29412" height="0.797924" fill="white"/>
<rect x="239.68" y="6.38818" width="1.29412" height="3.22344" fill="white"/>
<rect x="241.562" y="4.87939" width="1.29412" height="6.24098" fill="white"/>
<rect x="243.441" width="1.29412" height="16" fill="white"/>
<rect x="245.324" y="3.0708" width="1.29412" height="9.85846" fill="white"/>
<rect x="247.207" y="4.67334" width="1.29412" height="6.65349" fill="white"/>
<rect x="249.09" y="6.41602" width="1.29412" height="3.16816" fill="white"/>
<rect x="250.973" y="7.5459" width="1.29412" height="0.908501" fill="white"/>
<rect x="252.855" y="3.24463" width="1.29412" height="9.5105" fill="white"/>
<rect x="254.738" y="4.67969" width="1.29412" height="6.64072" fill="white"/>
<rect x="256.621" y="6.30078" width="1.29412" height="3.39874" fill="white"/>
<rect x="258.5" y="7.58594" width="1.29412" height="0.828411" fill="white"/>
<rect x="260.383" y="4.81201" width="1.29412" height="6.37621" fill="white"/>
<rect x="262.266" y="6.17871" width="1.29412" height="3.64258" fill="white"/>
<rect x="264.148" y="7.4917" width="1.29412" height="1.01618" fill="white"/>
<rect x="266.031" y="7.4917" width="1.29412" height="1.01618" fill="white"/>
<rect x="267.914" y="7.4917" width="1.29412" height="1.01618" fill="white"/>
<rect x="269.207" y="7.84961" width="1.29412" height="0.300774" fill="white"/>
<rect x="271.09" y="7.84961" width="1.29412" height="0.300774" fill="white"/>
<rect x="272.973" y="7.84961" width="1.29412" height="0.300774" fill="white"/>
<rect x="274.855" y="6.4375" width="1.29412" height="3.12454" fill="white"/>
<rect x="276.738" y="5.02734" width="1.29412" height="5.94566" fill="white"/>
<rect x="278.617" width="1.29412" height="16" fill="white"/>
<rect x="280.5" y="3.31494" width="1.29412" height="9.36985" fill="white"/>
<rect x="282.383" y="4.70215" width="1.29412" height="6.59585" fill="white"/>
<rect x="284.266" y="6.36328" width="1.29412" height="3.27364" fill="white"/>
<rect x="286.148" y="7.50439" width="1.29412" height="0.991216" fill="white"/>
<rect x="288.031" y="3.22363" width="1.29412" height="9.55279" fill="white"/>
<rect x="289.914" y="4.64795" width="1.29412" height="6.70432" fill="white"/>
<rect x="291.797" y="6.32617" width="1.29412" height="3.34814" fill="white"/>
<rect x="293.676" y="7.58496" width="1.29412" height="0.830264" fill="white"/>
<rect x="295.559" y="4.87939" width="1.29412" height="6.24113" fill="white"/>
<rect x="297.441" y="6.146" width="1.29412" height="3.70779" fill="white"/>
<rect x="299.324" y="7.60107" width="1.29412" height="0.797924" fill="white"/>
<rect x="301.207" y="7.60107" width="1.29412" height="0.797924" fill="white"/>
<rect x="303.09" y="7.60107" width="1.29412" height="0.797924" fill="white"/>
<rect x="304.973" y="7.60107" width="1.29412" height="0.797924" fill="white"/>
<rect x="306.855" y="6.38818" width="1.29412" height="3.22344" fill="white"/>
<rect x="308.738" y="4.87939" width="1.29412" height="6.24098" fill="white"/>
<rect x="310.617" width="1.29412" height="16" fill="white"/>
<rect x="312.5" y="3.0708" width="1.29412" height="9.85846" fill="white"/>
<rect x="314.383" y="4.67334" width="1.29412" height="6.65349" fill="white"/>
<rect x="316.266" y="6.41602" width="1.29412" height="3.16816" fill="white"/>
<rect x="318.148" y="7.5459" width="1.29412" height="0.908501" fill="white"/>
<rect x="320.031" y="3.24463" width="1.29412" height="9.5105" fill="white"/>
<rect x="321.914" y="4.67969" width="1.29412" height="6.64072" fill="white"/>
<rect x="323.797" y="6.30078" width="1.29412" height="3.39874" fill="white"/>
<rect x="325.676" y="7.58594" width="1.29412" height="0.828411" fill="white"/>
<rect x="327.559" y="4.81201" width="1.29412" height="6.37621" fill="white"/>
<rect x="329.441" y="6.17871" width="1.29412" height="3.64258" fill="white"/>
<rect x="331.324" y="7.4917" width="1.29412" height="1.01618" fill="white"/>
<rect x="333.207" y="7.4917" width="1.29412" height="1.01618" fill="white"/>
<rect x="335.09" y="7.4917" width="1.29412" height="1.01618" fill="white"/>
<rect x="336.383" y="7.84961" width="1.29412" height="0.300774" fill="white"/>
<rect x="338.266" y="7.84961" width="1.29412" height="0.300774" fill="white"/>
<rect x="340.148" y="7.84961" width="1.29412" height="0.300774" fill="white"/>
<rect x="342.031" y="6.4375" width="1.29412" height="3.12454" fill="white"/>
<rect x="343.914" y="5.02734" width="1.29412" height="5.94566" fill="white"/>
<rect x="345.793" width="1.29412" height="16" fill="white"/>
<rect x="347.676" y="3.31494" width="1.29412" height="9.36985" fill="white"/>
<rect x="349.559" y="4.70215" width="1.29412" height="6.59585" fill="white"/>
<rect x="351.441" y="6.36328" width="1.29412" height="3.27364" fill="white"/>
<rect x="353.324" y="7.50439" width="1.29412" height="0.991216" fill="white"/>
<rect x="355.207" y="3.22363" width="1.29412" height="9.55279" fill="white"/>
<rect x="357.09" y="4.64795" width="1.29412" height="6.70432" fill="white"/>
<rect x="358.973" y="6.32617" width="1.29412" height="3.34814" fill="white"/>
<rect x="360.852" y="7.58496" width="1.29412" height="0.830264" fill="white"/>
<rect x="362.734" y="4.87939" width="1.29412" height="6.24113" fill="white"/>
<rect x="364.617" y="6.146" width="1.29412" height="3.70779" fill="white"/>
<rect x="366.5" y="7.60107" width="1.29412" height="0.797924" fill="white"/>
<rect x="368.383" y="7.60107" width="1.29412" height="0.797924" fill="white"/>
<rect x="370.266" y="7.60107" width="1.29412" height="0.797924" fill="white"/>
<rect x="372.148" y="7.60107" width="1.29412" height="0.797924" fill="white"/>
<rect x="374.031" y="6.38818" width="1.29412" height="3.22344" fill="white"/>
<rect x="375.914" y="4.87939" width="1.29412" height="6.24098" fill="white"/>
<rect x="377.793" width="1.29412" height="16" fill="white"/>
<rect x="379.676" y="3.0708" width="1.29412" height="9.85846" fill="white"/>
<rect x="381.559" y="4.67334" width="1.29412" height="6.65349" fill="white"/>
<rect x="383.441" y="6.41602" width="1.29412" height="3.16816" fill="white"/>
<rect x="385.324" y="7.5459" width="1.29412" height="0.908501" fill="white"/>
<rect x="387.207" y="3.24463" width="1.29412" height="9.5105" fill="white"/>
<rect x="389.09" y="4.67969" width="1.29412" height="6.64072" fill="white"/>
<rect x="390.973" y="6.30078" width="1.29412" height="3.39874" fill="white"/>
<rect x="392.852" y="7.58594" width="1.29412" height="0.828411" fill="white"/>
<rect x="394.734" y="4.81201" width="1.29412" height="6.37621" fill="white"/>
<rect x="396.617" y="6.17871" width="1.29412" height="3.64258" fill="white"/>
<rect x="398.5" y="7.4917" width="1.29412" height="1.01618" fill="white"/>
<rect x="400.383" y="7.4917" width="1.29412" height="1.01618" fill="white"/>
<rect x="402.266" y="7.4917" width="1.29412" height="1.01618" fill="white"/>
<rect x="403.559" y="7.84961" width="1.29412" height="0.300774" fill="white"/>
<rect x="405.441" y="7.84961" width="1.29412" height="0.300774" fill="white"/>
<rect x="407.324" y="7.84961" width="1.29412" height="0.300774" fill="white"/>
<rect x="409.207" y="6.4375" width="1.29412" height="3.12454" fill="white"/>
<rect x="411.09" y="5.02734" width="1.29412" height="5.94566" fill="white"/>
<rect x="412.969" width="1.29412" height="16" fill="white"/>
<rect x="414.852" y="3.31494" width="1.29412" height="9.36985" fill="white"/>
<rect x="416.734" y="4.70215" width="1.29412" height="6.59585" fill="white"/>
<rect x="418.617" y="6.36328" width="1.29412" height="3.27364" fill="white"/>
<rect x="420.5" y="7.50439" width="1.29412" height="0.991216" fill="white"/>
<rect x="422.383" y="3.22363" width="1.29412" height="9.55279" fill="white"/>
<rect x="424.266" y="4.64795" width="1.29412" height="6.70432" fill="white"/>
<rect x="426.148" y="6.32617" width="1.29412" height="3.34814" fill="white"/>
<rect x="428.027" y="7.58496" width="1.29412" height="0.830264" fill="white"/>
<rect x="429.91" y="4.87939" width="1.29412" height="6.24113" fill="white"/>
<rect x="431.793" y="6.146" width="1.29412" height="3.70779" fill="white"/>
<rect x="433.676" y="7.60107" width="1.29412" height="0.797924" fill="white"/>
<rect x="435.559" y="7.60107" width="1.29412" height="0.797924" fill="white"/>
<rect x="437.441" y="7.60107" width="1.29412" height="0.797924" fill="white"/>
<rect x="439.324" y="7.60107" width="1.29412" height="0.797924" fill="white"/>
<rect x="441.207" y="6.38818" width="1.29412" height="3.22344" fill="white"/>
<rect x="443.09" y="4.87939" width="1.29412" height="6.24098" fill="white"/>
<rect x="444.969" width="1.29412" height="16" fill="white"/>
<rect x="446.852" y="3.0708" width="1.29412" height="9.85846" fill="white"/>
<rect x="448.734" y="4.67334" width="1.29412" height="6.65349" fill="white"/>
<rect x="450.617" y="6.41602" width="1.29412" height="3.16816" fill="white"/>
<rect x="452.5" y="7.5459" width="1.29412" height="0.908501" fill="white"/>
<rect x="454.383" y="3.24463" width="1.29412" height="9.5105" fill="white"/>
<rect x="456.266" y="4.67969" width="1.29412" height="6.64072" fill="white"/>
<rect x="458.148" y="6.30078" width="1.29412" height="3.39874" fill="white"/>
<rect x="460.027" y="7.58594" width="1.29412" height="0.828411" fill="white"/>
<rect x="461.91" y="4.81201" width="1.29412" height="6.37621" fill="white"/>
<rect x="463.793" y="6.17871" width="1.29412" height="3.64258" fill="white"/>
<rect x="465.676" y="7.4917" width="1.29412" height="1.01618" fill="white"/>
<rect x="467.559" y="7.4917" width="1.29412" height="1.01618" fill="white"/>
<rect x="469.441" y="7.4917" width="1.29412" height="1.01618" fill="white"/>
<rect x="470.734" y="7.84961" width="1.29412" height="0.300774" fill="white"/>
<rect x="472.617" y="7.84961" width="1.29412" height="0.300774" fill="white"/>
<rect x="474.5" y="7.84961" width="1.29412" height="0.300774" fill="white"/>
<rect x="476.383" y="6.4375" width="1.29412" height="3.12454" fill="white"/>
<rect x="478.266" y="5.02734" width="1.29412" height="5.94566" fill="white"/>
<rect x="480.145" width="1.29412" height="16" fill="white"/>
<rect x="482.027" y="3.31494" width="1.29412" height="9.36985" fill="white"/>
<rect x="483.91" y="4.70215" width="1.29412" height="6.59585" fill="white"/>
<rect x="485.793" y="6.36328" width="1.29412" height="3.27364" fill="white"/>
<rect x="487.676" y="7.50439" width="1.29412" height="0.991216" fill="white"/>
<rect x="489.559" y="3.22363" width="1.29412" height="9.55279" fill="white"/>
<rect x="491.441" y="4.64795" width="1.29412" height="6.70432" fill="white"/>
<rect x="493.324" y="6.32617" width="1.29412" height="3.34814" fill="white"/>
<rect x="495.203" y="7.58496" width="1.29412" height="0.830264" fill="white"/>
<rect x="497.086" y="4.87939" width="1.29412" height="6.24113" fill="white"/>
<rect x="498.969" y="6.146" width="1.29412" height="3.70779" fill="white"/>
<rect x="500.852" y="7.60107" width="1.29412" height="0.797924" fill="white"/>
<rect x="502.734" y="7.60107" width="1.29412" height="0.797924" fill="white"/>
<rect x="504.617" y="7.60107" width="1.29412" height="0.797924" fill="white"/>
<rect x="506.5" y="7.60107" width="1.29412" height="0.797924" fill="white"/>
<rect x="508.383" y="6.38818" width="1.29412" height="3.22344" fill="white"/>
<rect x="510.266" y="4.87939" width="1.29412" height="6.24098" fill="white"/>
<rect x="512.145" width="1.29412" height="16" fill="white"/>
<rect x="514.027" y="3.0708" width="1.29412" height="9.85846" fill="white"/>
<rect x="515.91" y="4.67334" width="1.29412" height="6.65349" fill="white"/>
<rect x="517.793" y="6.41602" width="1.29412" height="3.16816" fill="white"/>
<rect x="519.676" y="7.5459" width="1.29412" height="0.908501" fill="white"/>
<rect x="521.559" y="3.24463" width="1.29412" height="9.5105" fill="white"/>
<rect x="523.441" y="4.67969" width="1.29412" height="6.64072" fill="white"/>
<rect x="525.324" y="6.30078" width="1.29412" height="3.39874" fill="white"/>
<rect x="527.203" y="7.58594" width="1.29412" height="0.828411" fill="white"/>
<rect x="529.086" y="4.81201" width="1.29412" height="6.37621" fill="white"/>
<rect x="530.969" y="6.17871" width="1.29412" height="3.64258" fill="white"/>
<rect x="532.852" y="7.4917" width="1.29412" height="1.01618" fill="white"/>
<rect x="534.734" y="7.4917" width="1.29412" height="1.01618" fill="white"/>
<rect x="536.617" y="7.4917" width="1.29412" height="1.01618" fill="white"/>
<rect x="537.91" y="7.84961" width="1.29412" height="0.300774" fill="white"/>
<rect x="539.793" y="7.84961" width="1.29412" height="0.300774" fill="white"/>
<rect x="541.676" y="7.84961" width="1.29412" height="0.300774" fill="white"/>
<rect x="543.559" y="6.4375" width="1.29412" height="3.12454" fill="white"/>
<rect x="545.441" y="5.02734" width="1.29412" height="5.94566" fill="white"/>
<rect x="547.32" width="1.29412" height="16" fill="white"/>
<rect x="549.203" y="3.31494" width="1.29412" height="9.36985" fill="white"/>
<rect x="551.086" y="4.70215" width="1.29412" height="6.59585" fill="white"/>
<rect x="552.969" y="6.36328" width="1.29412" height="3.27364" fill="white"/>
<rect x="554.852" y="7.50439" width="1.29412" height="0.991216" fill="white"/>
<rect x="556.734" y="3.22363" width="1.29412" height="9.55279" fill="white"/>
<rect x="558.617" y="4.64795" width="1.29412" height="6.70432" fill="white"/>
<rect x="560.5" y="6.32617" width="1.29412" height="3.34814" fill="white"/>
<rect x="562.379" y="7.58496" width="1.29412" height="0.830264" fill="white"/>
<rect x="564.262" y="4.87939" width="1.29412" height="6.24113" fill="white"/>
<rect x="566.145" y="6.146" width="1.29412" height="3.70779" fill="white"/>
<rect x="568.027" y="7.60107" width="1.29412" height="0.797924" fill="white"/>
<rect x="569.91" y="7.60107" width="1.29412" height="0.797924" fill="white"/>
<rect x="571.793" y="7.60107" width="1.29412" height="0.797924" fill="white"/>
<rect x="573.676" y="7.60107" width="1.29412" height="0.797924" fill="white"/>
<rect x="575.559" y="6.38818" width="1.29412" height="3.22344" fill="white"/>
<rect x="577.441" y="4.87939" width="1.29412" height="6.24098" fill="white"/>
<rect x="579.32" width="1.29412" height="16" fill="white"/>
<rect x="581.203" y="3.0708" width="1.29412" height="9.85846" fill="white"/>
<rect x="583.086" y="4.67334" width="1.29412" height="6.65349" fill="white"/>
<rect x="584.969" y="6.41602" width="1.29412" height="3.16816" fill="white"/>
<rect x="586.852" y="7.5459" width="1.29412" height="0.908501" fill="white"/>
<rect x="588.734" y="3.24463" width="1.29412" height="9.5105" fill="white"/>
<rect x="590.617" y="4.67969" width="1.29412" height="6.64072" fill="white"/>
<rect x="592.5" y="6.30078" width="1.29412" height="3.39874" fill="white"/>
<rect x="594.379" y="7.58594" width="1.29412" height="0.828411" fill="white"/>
<rect x="596.262" y="4.81201" width="1.29412" height="6.37621" fill="white"/>
<rect x="598.145" y="6.17871" width="1.29412" height="3.64258" fill="white"/>
<rect x="600.027" y="7.4917" width="1.29412" height="1.01618" fill="white"/>
<rect x="601.91" y="7.4917" width="1.29412" height="1.01618" fill="white"/>
<rect x="603.793" y="7.4917" width="1.29412" height="1.01618" fill="white"/>
<rect x="605.09" y="7.84961" width="1.29412" height="0.300774" fill="white"/>
<rect x="606.973" y="7.84961" width="1.29412" height="0.300774" fill="white"/>
<rect x="608.855" y="7.84961" width="1.29412" height="0.300774" fill="white"/>
<rect x="610.738" y="6.4375" width="1.29412" height="3.12454" fill="white"/>
<rect x="612.621" y="5.02734" width="1.29412" height="5.94566" fill="white"/>
<rect x="614.5" width="1.29412" height="16" fill="white"/>
<rect x="616.383" y="3.31494" width="1.29412" height="9.36985" fill="white"/>
<rect x="618.266" y="4.70215" width="1.29412" height="6.59585" fill="white"/>
<rect x="620.148" y="6.36328" width="1.29412" height="3.27364" fill="white"/>
<rect x="622.031" y="7.50439" width="1.29412" height="0.991216" fill="white"/>
<rect x="623.914" y="3.22363" width="1.29412" height="9.55279" fill="white"/>
<rect x="625.797" y="4.64795" width="1.29412" height="6.70432" fill="white"/>
<rect x="627.68" y="6.32617" width="1.29412" height="3.34814" fill="white"/>
<rect x="629.559" y="7.58496" width="1.29412" height="0.830264" fill="white"/>
<rect x="631.441" y="4.87939" width="1.29412" height="6.24113" fill="white"/>
<rect x="633.324" y="6.146" width="1.29412" height="3.70779" fill="white"/>
<rect x="635.207" y="7.60107" width="1.29412" height="0.797924" fill="white"/>
<rect x="637.09" y="7.60107" width="1.29412" height="0.797924" fill="white"/>
<rect x="638.973" y="7.60107" width="1.29412" height="0.797924" fill="white"/>
<rect x="640.855" y="7.60107" width="1.29412" height="0.797924" fill="white"/>
<rect x="642.738" y="6.38818" width="1.29412" height="3.22344" fill="white"/>
<rect x="644.621" y="4.87939" width="1.29412" height="6.24098" fill="white"/>
<rect x="646.5" width="1.29412" height="16" fill="white"/>
</g>
<defs>
<clipPath id="clip0_2313_10584">
<rect width="647" height="16" fill="white" transform="translate(0.5)"/>
</clipPath>
</defs>
</svg>
