<svg width="10" height="11" viewBox="0 0 10 11" fill="none" xmlns="http://www.w3.org/2000/svg">
<path d="M9.78141 4.92154L9.10141 4.13154C8.97141 3.98154 8.86641 3.70154 8.86641 3.50154V2.65154C8.86641 2.12154 8.43141 1.68654 7.9014 1.68654H7.05141C6.85641 1.68654 6.57141 1.58154 6.42141 1.45154L5.63141 0.771543C5.28641 0.476543 4.72141 0.476543 4.37141 0.771543L3.58641 1.45654C3.43641 1.58154 3.15141 1.68654 2.95641 1.68654H2.09141C1.56141 1.68654 1.12641 2.12154 1.12641 2.65154V3.50654C1.12641 3.70154 1.02141 3.98154 0.896406 4.13154L0.221406 4.92654C-0.0685937 5.27154 -0.0685937 5.83154 0.221406 6.17654L0.896406 6.97154C1.02141 7.12154 1.12641 7.40154 1.12641 7.59654V8.45154C1.12641 8.98154 1.56141 9.41654 2.09141 9.41654H2.95641C3.15141 9.41654 3.43641 9.52154 3.58641 9.65154L4.37641 10.3315C4.72141 10.6265 5.28641 10.6265 5.63641 10.3315L6.42641 9.65154C6.57641 9.52154 6.85641 9.41654 7.05641 9.41654H7.9064C8.43641 9.41654 8.87141 8.98154 8.87141 8.45154V7.60154C8.87141 7.40654 8.97641 7.12154 9.10641 6.97154L9.78641 6.18154C10.0764 5.83654 10.0764 5.26654 9.78141 4.92154ZM7.08141 4.60654L4.66641 7.02154C4.59641 7.09154 4.50141 7.13154 4.40141 7.13154C4.30141 7.13154 4.20641 7.09154 4.13641 7.02154L2.92641 5.81154C2.78141 5.66654 2.78141 5.42654 2.92641 5.28154C3.07141 5.13654 3.31141 5.13654 3.45641 5.28154L4.40141 6.22654L6.55141 4.07654C6.69641 3.93154 6.93641 3.93154 7.08141 4.07654C7.22641 4.22154 7.22641 4.46154 7.08141 4.60654Z" fill="#4865FC"/>
</svg>
