<svg width="16" height="17" viewBox="0 0 16 17" fill="none" xmlns="http://www.w3.org/2000/svg">
<path d="M5.66536 13.1146H5.33203C2.66536 13.1146 1.33203 12.4479 1.33203 9.11458V5.78125C1.33203 3.11458 2.66536 1.78125 5.33203 1.78125H10.6654C13.332 1.78125 14.6654 3.11458 14.6654 5.78125V9.11458C14.6654 11.7813 13.332 13.1146 10.6654 13.1146H10.332C10.1254 13.1146 9.92536 13.2146 9.7987 13.3813L8.7987 14.7146C8.3587 15.3013 7.6387 15.3013 7.1987 14.7146L6.1987 13.3813C6.09203 13.2346 5.84536 13.1146 5.66536 13.1146Z" stroke="#B3B3B3" stroke-miterlimit="10" stroke-linecap="round" stroke-linejoin="round"/>
<path d="M4.66797 5.78125H11.3346" stroke="#B3B3B3" stroke-linecap="round" stroke-linejoin="round"/>
<path d="M4.66797 9.11719H8.66797" stroke="#B3B3B3" stroke-linecap="round" stroke-linejoin="round"/>
</svg>
