<svg width="41" height="41" viewBox="0 0 41 41" fill="none" xmlns="http://www.w3.org/2000/svg">
<path opacity="0.1" fill-rule="evenodd" clip-rule="evenodd" d="M0.25 20.0469C0.25 9.00118 9.20431 0.046875 20.25 0.046875C31.2957 0.046875 40.25 9.00118 40.25 20.0469C40.25 31.0926 31.2957 40.0469 20.25 40.0469C9.20431 40.0469 0.25 31.0926 0.25 20.0469Z" fill="white"/>
<path fill-rule="evenodd" clip-rule="evenodd" d="M20.2497 9.38086C17.3528 9.38086 16.9892 9.39353 15.8514 9.4453C14.7159 9.49731 13.9407 9.67708 13.2625 9.94087C12.561 10.2133 11.9658 10.5778 11.3729 11.1709C10.7796 11.7638 10.4152 12.3589 10.1418 13.0602C9.87737 13.7387 9.69737 14.514 9.64625 15.6491C9.59536 16.7869 9.58203 17.1507 9.58203 20.0476C9.58203 22.9446 9.59492 23.307 9.64648 24.4448C9.6987 25.5804 9.87848 26.3555 10.142 27.0337C10.4147 27.7353 10.7792 28.3304 11.3723 28.9233C11.9649 29.5166 12.5601 29.882 13.2612 30.1544C13.9399 30.4182 14.7152 30.598 15.8505 30.65C16.9883 30.7017 17.3517 30.7144 20.2484 30.7144C23.1455 30.7144 23.508 30.7017 24.6457 30.65C25.7813 30.598 26.5573 30.4182 27.236 30.1544C27.9373 29.882 28.5316 29.5166 29.1242 28.9233C29.7176 28.3304 30.082 27.7353 30.3554 27.0339C30.6176 26.3555 30.7976 25.5801 30.8509 24.445C30.902 23.3072 30.9154 22.9446 30.9154 20.0476C30.9154 17.1507 30.902 16.7872 30.8509 15.6494C30.7976 14.5138 30.6176 13.7387 30.3554 13.0605C30.082 12.3589 29.7176 11.7638 29.1242 11.1709C28.5309 10.5775 27.9376 10.2131 27.2353 9.94087C26.5553 9.67708 25.7798 9.49731 24.6442 9.4453C23.5064 9.39353 23.1442 9.38086 20.2464 9.38086H20.2497ZM19.2928 11.3031C19.5768 11.3026 19.8936 11.3031 20.2497 11.3031C23.0977 11.3031 23.4352 11.3133 24.5599 11.3644C25.5999 11.412 26.1644 11.5857 26.5404 11.7317C27.0382 11.9251 27.3931 12.1562 27.7662 12.5295C28.1395 12.9029 28.3706 13.2584 28.5644 13.7562C28.7104 14.1318 28.8844 14.6962 28.9317 15.7362C28.9829 16.8607 28.994 17.1985 28.994 20.0452C28.994 22.8919 28.9829 23.2296 28.9317 24.3541C28.8842 25.3941 28.7104 25.9586 28.5644 26.3341C28.3711 26.8319 28.1395 27.1863 27.7662 27.5595C27.3928 27.9328 27.0384 28.1639 26.5404 28.3573C26.1648 28.5039 25.5999 28.6773 24.5599 28.7248C23.4355 28.7759 23.0977 28.787 20.2497 28.787C17.4014 28.787 17.0638 28.7759 15.9394 28.7248C14.8994 28.6768 14.3349 28.503 13.9587 28.357C13.4609 28.1637 13.1054 27.9326 12.732 27.5592C12.3587 27.1859 12.1276 26.8312 11.9338 26.3332C11.7878 25.9577 11.6138 25.3932 11.5665 24.3532C11.5153 23.2288 11.5051 22.891 11.5051 20.0425C11.5051 17.194 11.5153 16.858 11.5665 15.7336C11.614 14.6936 11.7878 14.1291 11.9338 13.7531C12.1271 13.2553 12.3587 12.8998 12.732 12.5264C13.1054 12.1531 13.4609 11.922 13.9587 11.7282C14.3347 11.5815 14.8994 11.4082 15.9394 11.3604C16.9234 11.316 17.3047 11.3026 19.2928 11.3004V11.3031ZM25.9435 13.0742C25.2368 13.0742 24.6635 13.6469 24.6635 14.3538C24.6635 15.0604 25.2368 15.6338 25.9435 15.6338C26.6502 15.6338 27.2235 15.0604 27.2235 14.3538C27.2235 13.6471 26.6502 13.0742 25.9435 13.0742ZM20.2497 14.5698C17.2246 14.5698 14.7719 17.0225 14.7719 20.0476C14.7719 23.0728 17.2246 25.5243 20.2497 25.5243C23.2749 25.5243 25.7267 23.0728 25.7267 20.0476C25.7267 17.0225 23.2749 14.5698 20.2497 14.5698ZM20.2497 16.492C22.2133 16.492 23.8053 18.0838 23.8053 20.0476C23.8053 22.0112 22.2133 23.6032 20.2497 23.6032C18.2859 23.6032 16.6941 22.0112 16.6941 20.0476C16.6941 18.0838 18.2859 16.492 20.2497 16.492Z" fill="white"/>
</svg>
