<svg width="40" height="41" viewBox="0 0 40 41" fill="none" xmlns="http://www.w3.org/2000/svg">
<path opacity="0.1" fill-rule="evenodd" clip-rule="evenodd" d="M0 20.0469C0 9.00118 8.95431 0.046875 20 0.046875C31.0457 0.046875 40 9.00118 40 20.0469C40 31.0926 31.0457 40.0469 20 40.0469C8.95431 40.0469 0 31.0926 0 20.0469Z" fill="white"/>
<path d="M14.431 12.3991C14.4016 11.0639 13.4467 10.0469 11.8962 10.0469C10.3457 10.0469 9.33203 11.0639 9.33203 12.3991C9.33203 13.7067 10.3157 14.753 11.8374 14.753H11.8664C13.4467 14.753 14.431 13.7067 14.431 12.3991Z" fill="white"/>
<path d="M14.1325 16.6118H9.60005V30.2299H14.1325V16.6118Z" fill="white"/>
<path d="M25.2597 16.292C28.2422 16.292 30.4782 18.2388 30.4782 22.4217L30.478 30.2299H25.9458V22.9442C25.9458 21.1142 25.2899 19.8654 23.6491 19.8654C22.397 19.8654 21.6511 20.7073 21.3235 21.5204C21.2037 21.8118 21.1743 22.2178 21.1743 22.6248V30.2302H16.6413C16.6413 30.2302 16.701 17.89 16.6413 16.6121H21.1743V18.541C21.7758 17.6138 22.8532 16.292 25.2597 16.292Z" fill="white"/>
</svg>
