<svg width="40" height="41" viewBox="0 0 40 41" fill="none" xmlns="http://www.w3.org/2000/svg">
<path opacity="0.1" fill-rule="evenodd" clip-rule="evenodd" d="M0 20.0469C0 9.00118 8.95431 0.046875 20 0.046875C31.0457 0.046875 40 9.00118 40 20.0469C40 31.0926 31.0457 40.0469 20 40.0469C8.95431 40.0469 0 31.0926 0 20.0469Z" fill="white"/>
<path d="M20.5784 22.5383H17.6938C17.2207 22.5383 16.8284 22.146 16.8284 21.6729C16.8284 21.1999 17.2207 20.8075 17.6938 20.8075H20.5784C23.6015 20.8075 26.0592 18.3499 26.0592 15.3268C26.0592 12.3037 23.6015 9.846 20.5784 9.846H14.8092C11.7861 9.846 9.32843 12.3037 9.32843 15.3268C9.32843 16.596 9.77843 17.8306 10.5861 18.8114C10.8861 19.1806 10.84 19.7229 10.4707 20.0345C10.1015 20.3345 9.55919 20.2883 9.24766 19.9191C8.18612 18.6268 7.59766 16.9999 7.59766 15.3268C7.59766 11.346 10.8284 8.11523 14.8092 8.11523H20.5784C24.5592 8.11523 27.79 11.346 27.79 15.3268C27.79 19.3075 24.5592 22.5383 20.5784 22.5383Z" fill="white"/>
<path d="M25.1956 30.6164H19.4264C15.4456 30.6164 12.2148 27.3857 12.2148 23.4049C12.2148 19.4241 15.4456 16.1934 19.4264 16.1934H22.311C22.7841 16.1934 23.1764 16.5857 23.1764 17.0587C23.1764 17.5318 22.7841 17.9241 22.311 17.9241H19.4264C16.4033 17.9241 13.9456 20.3818 13.9456 23.4049C13.9456 26.428 16.4033 28.8857 19.4264 28.8857H25.1956C28.2187 28.8857 30.6764 26.428 30.6764 23.4049C30.6764 22.1357 30.2264 20.9011 29.4187 19.9203C29.1187 19.5511 29.1648 19.0087 29.5341 18.6972C29.9033 18.3857 30.4456 18.4434 30.7572 18.8126C31.8302 20.1049 32.4187 21.7318 32.4187 23.4049C32.4072 27.3857 29.1764 30.6164 25.1956 30.6164Z" fill="white"/>
</svg>
