<svg width="17" height="17" viewBox="0 0 17 17" fill="none" xmlns="http://www.w3.org/2000/svg">
<path d="M8.34172 10.3389C6.92172 10.3389 5.76172 9.18555 5.76172 7.75888C5.76172 6.33221 6.92172 5.18555 8.34172 5.18555C9.76172 5.18555 10.9217 6.33888 10.9217 7.76555C10.9217 9.19221 9.76172 10.3389 8.34172 10.3389ZM8.34172 6.18555C7.47505 6.18555 6.76172 6.89221 6.76172 7.76555C6.76172 8.63888 7.46839 9.34555 8.34172 9.34555C9.21505 9.34555 9.92172 8.63888 9.92172 7.76555C9.92172 6.89221 9.20839 6.18555 8.34172 6.18555Z" fill="#B3B3B3"/>
<path d="M8.34094 16.0666C7.35427 16.0666 6.36094 15.6932 5.5876 14.9532C3.62094 13.0599 1.4476 10.0399 2.2676 6.44656C3.0076 3.18656 5.85427 1.72656 8.34094 1.72656C8.34094 1.72656 8.34094 1.72656 8.3476 1.72656C10.8343 1.72656 13.6809 3.18656 14.4209 6.45323C15.2343 10.0466 13.0609 13.0599 11.0943 14.9532C10.3209 15.6932 9.3276 16.0666 8.34094 16.0666ZM8.34094 2.72656C6.40094 2.72656 3.9076 3.7599 3.2476 6.66656C2.5276 9.80656 4.50094 12.5132 6.2876 14.2266C7.44094 15.3399 9.2476 15.3399 10.4009 14.2266C12.1809 12.5132 14.1543 9.80656 13.4476 6.66656C12.7809 3.7599 10.2809 2.72656 8.34094 2.72656Z" fill="#B3B3B3"/>
</svg>
