<svg width="41" height="41" viewBox="0 0 41 41" fill="none" xmlns="http://www.w3.org/2000/svg">
<path opacity="0.1" fill-rule="evenodd" clip-rule="evenodd" d="M0.5 20.0469C0.5 9.00118 9.45431 0.046875 20.5 0.046875C31.5457 0.046875 40.5 9.00118 40.5 20.0469C40.5 31.0926 31.5457 40.0469 20.5 40.0469C9.45431 40.0469 0.5 31.0926 0.5 20.0469Z" fill="white"/>
<path fill-rule="evenodd" clip-rule="evenodd" d="M19.901 16.3031L19.943 16.9952L19.2435 16.9104C16.6974 16.5856 14.473 15.484 12.5844 13.6338L11.6611 12.7158L11.4233 13.3937C10.9197 14.9049 11.2414 16.5009 12.2907 17.5742C12.8503 18.1674 12.7243 18.2522 11.7591 17.8991C11.4233 17.7861 11.1295 17.7013 11.1016 17.7437C11.0036 17.8426 11.3394 19.1278 11.6052 19.6362C11.9689 20.3424 12.7104 21.0345 13.5218 21.444L14.2072 21.7689L13.3958 21.783C12.6124 21.783 12.5844 21.7971 12.6684 22.0937C12.9482 23.0117 14.0534 23.9862 15.2844 24.4099L16.1518 24.7065L15.3964 25.1585C14.2772 25.8082 12.9622 26.1754 11.6471 26.2036C11.0176 26.2177 10.5 26.2742 10.5 26.3166C10.5 26.4578 12.2067 27.2487 13.2 27.5595C16.1798 28.4775 19.7191 28.082 22.3772 26.5143C24.2658 25.3986 26.1543 23.1812 27.0357 21.0345C27.5113 19.8905 27.987 17.8002 27.987 16.7974C27.987 16.1478 28.029 16.063 28.8124 15.2862C29.274 14.8343 29.7077 14.34 29.7916 14.1987C29.9315 13.9304 29.9175 13.9304 29.2041 14.1705C28.015 14.5942 27.8471 14.5377 28.4346 13.9022C28.8683 13.4502 29.3859 12.631 29.3859 12.391C29.3859 12.3486 29.1761 12.4192 28.9383 12.5463C28.6865 12.6875 28.1269 12.8994 27.7072 13.0265L26.9518 13.2666L26.2663 12.8005C25.8885 12.5463 25.3569 12.2638 25.0771 12.1791C24.3637 11.9814 23.2725 12.0096 22.629 12.2356C20.8803 12.8711 19.7751 14.5095 19.901 16.3031Z" fill="white"/>
</svg>
