<svg width="16" height="17" viewBox="0 0 16 17" fill="none" xmlns="http://www.w3.org/2000/svg">
<path d="M5.33387 15.5592H10.6672C13.3472 15.5592 13.8272 14.4859 13.9672 13.1792L14.4672 7.84591C14.6472 6.21924 14.1805 4.89258 11.3339 4.89258H4.6672C1.82054 4.89258 1.35387 6.21924 1.53387 7.84591L2.03387 13.1792C2.17387 14.4859 2.65387 15.5592 5.33387 15.5592Z" stroke="#B3B3B3" stroke-miterlimit="10" stroke-linecap="round" stroke-linejoin="round"/>
<path d="M5.33203 4.89323V4.3599C5.33203 3.1799 5.33203 2.22656 7.46536 2.22656H8.53203C10.6654 2.22656 10.6654 3.1799 10.6654 4.3599V4.89323" stroke="#B3B3B3" stroke-miterlimit="10" stroke-linecap="round" stroke-linejoin="round"/>
<path d="M9.33464 9.55924V10.2259C9.33464 10.2326 9.33464 10.2326 9.33464 10.2392C9.33464 10.9659 9.32797 11.5592 8.0013 11.5592C6.6813 11.5592 6.66797 10.9726 6.66797 10.2459V9.55924C6.66797 8.89258 6.66797 8.89258 7.33464 8.89258H8.66797C9.33464 8.89258 9.33464 8.89258 9.33464 9.55924Z" stroke="#B3B3B3" stroke-miterlimit="10" stroke-linecap="round" stroke-linejoin="round"/>
<path d="M14.432 8.22656C12.892 9.34656 11.132 10.0132 9.33203 10.2399" stroke="#B3B3B3" stroke-miterlimit="10" stroke-linecap="round" stroke-linejoin="round"/>
<path d="M1.74609 8.40625C3.24609 9.43292 4.93943 10.0529 6.66609 10.2462" stroke="#B3B3B3" stroke-miterlimit="10" stroke-linecap="round" stroke-linejoin="round"/>
</svg>
