<svg width="33" height="34" viewBox="0 0 33 34" fill="none" xmlns="http://www.w3.org/2000/svg">
<path d="M4.8345 28.9926C3.25858 27.4706 2.00157 25.6499 1.13682 23.6368C0.272075 21.6238 -0.183098 19.4586 -0.202136 17.2678C-0.221174 15.0769 0.196304 12.9042 1.02594 10.8764C1.85557 8.84861 3.08075 7.00636 4.62998 5.45713C6.17921 3.9079 8.02147 2.68272 10.0493 1.85309C12.077 1.02345 14.2498 0.605975 16.4406 0.625013C18.6315 0.644051 20.7966 1.09922 22.8097 1.96397C24.8227 2.82872 26.6434 4.08573 28.1655 5.66165C31.1711 8.77358 32.8342 12.9415 32.7966 17.2678C32.759 21.594 31.0237 25.7324 27.9645 28.7917C24.9053 31.8509 20.7669 33.5862 16.4406 33.6238C12.1144 33.6614 7.94643 31.9983 4.8345 28.9926ZM25.839 26.6661C28.3159 24.1893 29.7073 20.8299 29.7073 17.3271C29.7073 13.8243 28.3159 10.465 25.839 7.98814C23.3621 5.51129 20.0028 4.1198 16.5 4.1198C12.9972 4.1198 9.63785 5.51129 7.161 7.98814C4.68414 10.465 3.29266 13.8243 3.29266 17.3271C3.29266 20.8299 4.68414 24.1893 7.161 26.6661C9.63785 29.143 12.9972 30.5345 16.5 30.5345C20.0028 30.5345 23.3621 29.143 25.839 26.6661ZM11.055 16.1556L14.85 19.9671L21.945 12.8721L24.255 15.2151L14.85 24.5871L8.745 18.4821L11.055 16.1391V16.1556Z" fill="#CFF073"/>
</svg>
