<svg width="41" height="41" viewBox="0 0 41 41" fill="none" xmlns="http://www.w3.org/2000/svg">
<path opacity="0.1" fill-rule="evenodd" clip-rule="evenodd" d="M0.75 20.0469C0.75 9.00118 9.70431 0.046875 20.75 0.046875C31.7957 0.046875 40.75 9.00118 40.75 20.0469C40.75 31.0926 31.7957 40.0469 20.75 40.0469C9.70431 40.0469 0.75 31.0926 0.75 20.0469Z" fill="white"/>
<path d="M28.5352 25.8281L29.4219 20.0469H23.875V16.2969C23.875 14.7148 24.6484 13.1719 27.1328 13.1719H29.6562V8.25C29.6562 8.25 27.3672 7.85938 25.1797 7.85938C20.6094 7.85938 17.625 10.6289 17.625 15.6406V20.0469H12.5469V25.8281H17.625V39.8047C18.6445 39.9648 19.6875 40.0469 20.75 40.0469C21.8125 40.0469 22.8555 39.9648 23.875 39.8047V25.8281H28.5352Z" fill="white"/>
</svg>
