<svg width="46" height="47" viewBox="0 0 46 47" fill="none" xmlns="http://www.w3.org/2000/svg">
<rect width="46" height="46.4483" rx="23" fill="#333333"/>
<rect x="0.400862" y="0.400862" width="45.1983" height="45.6466" rx="22.5991" stroke="#E6E6E6" stroke-opacity="0.3" stroke-width="0.801724"/>
<path d="M27.19 13.2246H18.81C15.17 13.2246 13 15.3946 13 19.0346V27.4046C13 31.0546 15.17 33.2246 18.81 33.2246H27.18C30.82 33.2246 32.99 31.0546 32.99 27.4146V19.0346C33 15.3946 30.83 13.2246 27.19 13.2246ZM18.63 29.3746C18.63 29.7846 18.29 30.1246 17.88 30.1246C17.47 30.1246 17.13 29.7846 17.13 29.3746V27.3046C17.13 26.8946 17.47 26.5546 17.88 26.5546C18.29 26.5546 18.63 26.8946 18.63 27.3046V29.3746ZM23.75 29.3746C23.75 29.7846 23.41 30.1246 23 30.1246C22.59 30.1246 22.25 29.7846 22.25 29.3746V25.2246C22.25 24.8146 22.59 24.4746 23 24.4746C23.41 24.4746 23.75 24.8146 23.75 25.2246V29.3746ZM28.87 29.3746C28.87 29.7846 28.53 30.1246 28.12 30.1246C27.71 30.1246 27.37 29.7846 27.37 29.3746V23.1546C27.37 22.7446 27.71 22.4046 28.12 22.4046C28.53 22.4046 28.87 22.7446 28.87 23.1546V29.3746ZM28.87 19.9946C28.87 20.4046 28.53 20.7446 28.12 20.7446C27.71 20.7446 27.37 20.4046 27.37 19.9946V19.0246C24.82 21.6446 21.63 23.4946 18.06 24.3846C18 24.4046 17.94 24.4046 17.88 24.4046C17.54 24.4046 17.24 24.1746 17.15 23.8346C17.05 23.4346 17.29 23.0246 17.7 22.9246C21.07 22.0846 24.07 20.3146 26.45 17.8146H25.2C24.79 17.8146 24.45 17.4746 24.45 17.0646C24.45 16.6546 24.79 16.3146 25.2 16.3146H28.13C28.17 16.3146 28.2 16.3346 28.24 16.3346C28.29 16.3446 28.34 16.3446 28.39 16.3646C28.44 16.3846 28.48 16.4146 28.53 16.4446C28.56 16.4646 28.59 16.4746 28.62 16.4946C28.63 16.5046 28.63 16.5146 28.64 16.5146C28.68 16.5546 28.71 16.5946 28.74 16.6346C28.77 16.6746 28.8 16.7046 28.81 16.7446C28.83 16.7846 28.83 16.8246 28.84 16.8746C28.85 16.9246 28.87 16.9746 28.87 17.0346C28.87 17.0446 28.88 17.0546 28.88 17.0646V19.9946H28.87Z" fill="white"/>
</svg>
