<svg width="46" height="47" viewBox="0 0 46 47" fill="none" xmlns="http://www.w3.org/2000/svg">
<rect width="46" height="46.4483" rx="23" fill="#333333"/>
<rect x="0.400862" y="0.400862" width="45.1983" height="45.6466" rx="22.5991" stroke="#E6E6E6" stroke-opacity="0.3" stroke-width="0.801724"/>
<path d="M28 13.2246H18C15.24 13.2246 13 15.4546 13 18.2046V24.1846V25.1846C13 27.9346 15.24 30.1646 18 30.1646H19.5C19.77 30.1646 20.13 30.3446 20.3 30.5646L21.8 32.5546C22.46 33.4346 23.54 33.4346 24.2 32.5546L25.7 30.5646C25.89 30.3146 26.19 30.1646 26.5 30.1646H28C30.76 30.1646 33 27.9346 33 25.1846V18.2046C33 15.4546 30.76 13.2246 28 13.2246ZM19 23.2246C18.44 23.2246 18 22.7746 18 22.2246C18 21.6746 18.45 21.2246 19 21.2246C19.55 21.2246 20 21.6746 20 22.2246C20 22.7746 19.56 23.2246 19 23.2246ZM23 23.2246C22.44 23.2246 22 22.7746 22 22.2246C22 21.6746 22.45 21.2246 23 21.2246C23.55 21.2246 24 21.6746 24 22.2246C24 22.7746 23.56 23.2246 23 23.2246ZM27 23.2246C26.44 23.2246 26 22.7746 26 22.2246C26 21.6746 26.45 21.2246 27 21.2246C27.55 21.2246 28 21.6746 28 22.2246C28 22.7746 27.56 23.2246 27 23.2246Z" fill="white"/>
</svg>
