<svg width="46" height="47" viewBox="0 0 46 47" fill="none" xmlns="http://www.w3.org/2000/svg">
<rect width="46" height="46.4483" rx="23" fill="#333333"/>
<rect x="0.400862" y="0.400862" width="45.1983" height="45.6466" rx="22.5991" stroke="#E6E6E6" stroke-opacity="0.3" stroke-width="0.801724"/>
<path d="M32.9961 25.2266H24.9961V33.2266H32.9961V25.2266ZM17.4961 13.2266L21.9961 21.2266H12.9961L17.4961 13.2266ZM28.9961 21.2266C30.057 21.2266 31.0744 20.8051 31.8245 20.055C32.5747 19.3048 32.9961 18.2874 32.9961 17.2266C32.9961 16.1657 32.5747 15.1483 31.8245 14.3981C31.0744 13.648 30.057 13.2266 28.9961 13.2266C27.9352 13.2266 26.9178 13.648 26.1677 14.3981C25.4175 15.1483 24.9961 16.1657 24.9961 17.2266C24.9961 18.2874 25.4175 19.3048 26.1677 20.055C26.9178 20.8051 27.9352 21.2266 28.9961 21.2266Z" fill="white" stroke="white" stroke-width="2" stroke-linejoin="round"/>
<path d="M12.9961 25.2246L20.9961 33.2246M20.9961 25.2246L12.9961 33.2246" stroke="white" stroke-width="2" stroke-linecap="round" stroke-linejoin="round"/>
</svg>
