<svg width="16" height="17" viewBox="0 0 16 17" fill="none" xmlns="http://www.w3.org/2000/svg">
<path d="M11.6134 3.39016H3.59339L4.84672 2.13682C5.04005 1.94349 5.04005 1.62349 4.84672 1.43016C4.65339 1.23682 4.33339 1.23682 4.14005 1.43016L2.03339 3.53682C1.98672 3.58349 1.95339 3.63682 1.92672 3.69682C1.90005 3.75682 1.88672 3.82349 1.88672 3.89016C1.88672 3.95682 1.90005 4.02349 1.92672 4.08349C1.95339 4.14349 1.98672 4.19682 2.03339 4.24349L4.14005 6.35016C4.24005 6.45016 4.36672 6.49682 4.49339 6.49682C4.62005 6.49682 4.74672 6.45016 4.84672 6.35016C5.04005 6.15682 5.04005 5.83682 4.84672 5.64349L3.59339 4.39016H11.6134C12.4401 4.39016 13.1134 5.06349 13.1134 5.89016V8.10349C13.1134 8.37682 13.3401 8.60349 13.6134 8.60349C13.8867 8.60349 14.1134 8.37682 14.1134 8.10349V5.89016C14.1134 4.51016 12.9934 3.39016 11.6134 3.39016Z" fill="#B3B3B3"/>
<path d="M14.1134 13.0102C14.1134 12.9435 14.1001 12.8769 14.0734 12.8169C14.0467 12.7569 14.0134 12.7035 13.9667 12.6569L11.8601 10.5502C11.6667 10.3569 11.3467 10.3569 11.1534 10.5502C10.9601 10.7435 10.9601 11.0635 11.1534 11.2569L12.4067 12.5102H4.38672C3.56005 12.5102 2.88672 11.8369 2.88672 11.0102V8.79688C2.88672 8.52354 2.66005 8.29688 2.38672 8.29688C2.11339 8.29688 1.88672 8.52354 1.88672 8.79688V11.0102C1.88672 12.3902 3.00672 13.5102 4.38672 13.5102H12.4067L11.1534 14.7635C10.9601 14.9569 10.9601 15.2769 11.1534 15.4702C11.2534 15.5702 11.3801 15.6169 11.5067 15.6169C11.6334 15.6169 11.7601 15.5702 11.8601 15.4702L13.9667 13.3635C14.0134 13.3169 14.0467 13.2635 14.0734 13.2035C14.1001 13.1435 14.1134 13.0769 14.1134 13.0102Z" fill="#B3B3B3"/>
</svg>
